<?xml version="1.0" standalone="no"?>
<!DOCTYPE svg PUBLIC "-//W3C//DTD SVG 20010904//EN"
 "http://www.w3.org/TR/2001/REC-SVG-20010904/DTD/svg10.dtd">
<svg version="1.0" xmlns="http://www.w3.org/2000/svg"
 width="260.000000pt" height="260.000000pt" viewBox="0 0 260.000000 260.000000"
 preserveAspectRatio="xMidYMid meet">
<metadata>
Created by potrace 1.11, written by Peter Selinger 2001-2013
</metadata>
<g transform="translate(0.000000,260.000000) scale(0.100000,-0.100000)"
fill="#000000" stroke="none">
<path d="M1152 2409 c-280 -36 -547 -187 -726 -411 -80 -99 -176 -288 -206
-403 -49 -190 -49 -400 0 -590 49 -188 192 -417 343 -547 587 -505 1483 -291
1776 424 60 148 75 234 75 423 -1 151 -4 181 -27 270 -36 134 -128 317 -213
423 -245 306 -633 462 -1022 411z m118 -533 l0 -133 -60 -7 c-80 -9 -187 -64
-250 -128 -211 -214 -150 -567 120 -702 45 -22 93 -38 130 -42 l60 -7 0 -135
0 -135 -67 6 c-89 7 -212 47 -293 94 -83 48 -204 169 -253 253 -21 36 -49 101
-64 145 -23 71 -26 96 -26 215 0 119 3 144 26 215 38 115 91 198 182 290 64
65 98 90 175 128 98 49 190 75 273 76 l47 1 0 -134z m768 -293 c-5 -478 -7
-491 -83 -644 -43 -84 -150 -200 -229 -248 -85 -51 -212 -91 -311 -98 l-85 -6
0 137 0 136 30 0 c16 0 53 5 82 11 179 38 292 163 317 352 6 43 11 177 11 298
l0 219 -220 0 -220 0 0 135 0 135 356 0 356 0 -4 -427z"/>
</g>
</svg>
